# xmcd
#
# Track frame offsets: 
#        150
#        28092
#        92422
#        111817
#        151260
#        157885
#        165895
#        238270
#        250847
#        263767
#
# Disc length: 3682 seconds
#
# Revision: 1
# Processed by: cddbd v1.5.2PL0 Copyright (c) Steve Scherf et al.
# Submitted via: ExactAudioCopy v0.95b4
#
DISCID=6b0e600a
DTITLE=Gregor Theelen - Dolphin Awakening
DYEAR=2001
DGENRE=New Age
TTITLE0=Dolphin Awakening
TTITLE1=Happy Solitude, The Mother
TTITLE2=Awareness (part 1)
TTITLE3=Arabesque
TTITLE4=Awareness (part 2)
TTITLE5=Joy, The Son
TTITLE6=Balance, The Father
TTITLE7=United With The Sea
TTITLE8=Etude N-3
TTITLE9=Open Mind, The Daughter
EXTD=
EXTT0=
EXTT1=
EXTT2=
EXTT3=
EXTT4=
EXTT5=
EXTT6=
EXTT7=
EXTT8=
EXTT9=
PLAYORDER=
